<svg width="20" height="20" viewBox="0 0 20 20" fill="none" xmlns="http://www.w3.org/2000/svg">
<path d="M18.0682 2.76009L11.1932 17.7601C11.1357 17.8857 11.0381 17.9888 10.9158 18.0531C10.7935 18.1174 10.6533 18.1394 10.5172 18.1156C10.3811 18.0917 10.2567 18.0235 10.1635 17.9214C10.0703 17.8194 10.0135 17.6894 10.0021 17.5517L9.42083 10.5787L2.44789 9.99746C2.31017 9.98602 2.18013 9.92926 2.0781 9.83606C1.97607 9.74285 1.90781 9.61846 1.88399 9.48234C1.86017 9.34622 1.88213 9.20604 1.94645 9.08372C2.01077 8.96141 2.11381 8.86386 2.23945 8.80634L17.2395 1.93134C17.3554 1.87819 17.4849 1.8618 17.6104 1.88437C17.736 1.90693 17.8516 1.96737 17.9418 2.05757C18.032 2.14777 18.0924 2.2634 18.115 2.38895C18.1375 2.51449 18.1212 2.64394 18.068 2.7599L18.0682 2.76009Z" fill="#080809"/>
</svg>
