<svg width="116" height="137" viewBox="0 0 116 137" fill="none" xmlns="http://www.w3.org/2000/svg">
<path d="M70.4165 77.6381C69.0971 77.9098 67.8121 78.4129 66.6411 79.116C63.5904 80.9029 61.8155 83.4536 62.677 84.8127C63.5385 86.1718 66.7099 85.8242 69.7606 84.0373C70.9474 83.3591 72.0016 82.4923 72.8585 81.4905C73.2562 81.0064 73.3275 80.4034 73.0408 79.9525L71.9216 78.187C71.6369 77.7347 71.0462 77.5196 70.4165 77.6381Z" fill="#D5D6DB"/>
<path d="M62.7556 53.5364C61.7989 53.7335 60.867 54.0985 60.0178 54.6084C57.8063 55.9037 56.5185 57.7532 57.1427 58.7379C57.7669 59.7225 60.0674 59.4703 62.2787 58.175C63.1392 57.683 63.9036 57.0542 64.525 56.3277C64.813 55.9769 64.8646 55.5399 64.6568 55.2131L63.8464 53.9347C63.6402 53.6068 63.2122 53.4505 62.7556 53.5364Z" fill="#D5D6DB"/>
<path d="M50.309 54.5459C50.096 54.524 49.8689 54.5762 49.672 54.6918L44.4771 57.7349C44.0426 57.9887 43.8687 58.4774 44.0892 58.8267C44.1396 58.9067 44.2085 58.9751 44.2923 59.0277L57.096 67.1394L74.418 56.9922L50.309 54.5459Z" fill="#029BC5"/>
<path d="M105.069 53.3991L57.9289 80.6783L30.0396 90.8797L15.8163 93.4786L14.2516 91.0347L92.827 46.4387C95.1686 45.104 97.7773 44.2847 100.389 44.0641C101.533 43.9731 102.662 44.0081 103.751 44.1677C104.717 44.3023 105.633 44.5618 106.471 44.9387C107.408 45.3657 109.19 45.415 109.767 46.2657C109.769 46.2643 111.131 50.1701 105.069 53.3991V53.3991Z" fill="#E1E6E9"/>
<path d="M58.5538 77.0683L38.1606 106.953C37.9059 107.372 38.0571 107.843 38.498 108.003C38.7685 108.101 39.0997 108.062 39.3779 107.9L44.5686 104.873C45.567 104.29 46.451 103.55 47.1661 102.699L86.7149 59.958L58.5538 77.0683Z" fill="#029BC5"/>
<path d="M7.09351 76.0709C6.75333 75.964 6.34849 76.0195 6.00675 76.2195L1.71594 78.7315C1.13128 79.0736 0.898308 79.7311 1.1954 80.2005C1.252 80.2897 1.32553 80.3682 1.41367 80.4329L13.4355 89.2834L26.0754 82.026L7.09351 76.0709Z" fill="#029BC5"/>
<path d="M17.4649 90.8789L10.9944 99.2089C10.8996 99.3287 10.9219 99.4789 11.0442 99.5444C11.1325 99.5916 11.2529 99.5831 11.3508 99.5228L15.3607 97.1871C15.3918 97.1689 15.42 97.1462 15.4433 97.1202L24.8978 86.5533L17.4649 90.8789Z" fill="#029BC5"/>
<path d="M102.978 44.5268C101.856 44.3612 100.693 44.3258 99.5148 44.421C98.3677 45.8952 97.6347 47.5512 97.3885 49.224C97.3705 49.56 97.6652 49.8018 98.0468 49.7642C98.1655 49.7523 98.2834 49.714 98.3896 49.6526L105.779 45.3273C104.915 44.9357 103.972 44.6662 102.978 44.5268Z" fill="#029BC5"/>
<path d="M86.8737 52.4805L91.6982 49.6796L96.1922 56.7056L91.3676 59.5065L86.8737 52.4805Z" fill="#D5D6DB"/>
<path d="M83.8378 55.2594C83.2564 55.5979 83.024 56.2486 83.3192 56.7127L83.7974 57.4645C84.1119 57.9167 84.83 57.9962 85.4014 57.642C85.9452 57.3047 86.1642 56.6916 85.9021 56.2388L85.4239 55.4871C85.129 55.0234 84.4191 54.9214 83.8378 55.2594V55.2594Z" fill="#3A556A"/>
<path d="M79.5015 57.735C78.9201 58.0735 78.6877 58.7242 78.9829 59.1883L79.4611 59.94C79.7756 60.3923 80.4937 60.4718 81.0651 60.1176C81.6089 59.7802 81.8279 59.1671 81.5658 58.7144L81.0876 57.9626C80.7925 57.4991 80.0826 57.3971 79.5015 57.735V57.735Z" fill="#3A556A"/>
<path d="M75.1637 60.2113C74.583 60.5503 74.3514 61.2002 74.6463 61.6638L75.1245 62.4156C75.4391 62.8678 76.1572 62.9473 76.7286 62.5931C77.2723 62.2558 77.4913 61.6427 77.2293 61.19L76.7511 60.4382C76.4559 59.9742 75.7453 59.8726 75.1637 60.2113V60.2113Z" fill="#3A556A"/>
<path d="M70.8273 62.6864C70.2465 63.0254 70.015 63.6753 70.3099 64.139L70.7881 64.8907C71.1026 65.3429 71.8207 65.4225 72.3921 65.0683C72.9359 64.7309 73.1549 64.1178 72.8928 63.6651L72.4146 62.9133C72.1192 62.4494 71.4086 62.3478 70.8273 62.6864V62.6864Z" fill="#3A556A"/>
<path d="M66.4913 65.1622C65.9103 65.5013 65.6786 66.1515 65.9737 66.6154L66.4521 67.3675C66.7471 67.8311 67.4574 67.9327 68.0386 67.5943C68.6198 67.2559 68.8519 66.6057 68.5569 66.1421L68.0784 65.39C67.7842 64.9259 67.0742 64.8237 66.4926 65.1615C66.4921 65.1618 66.4918 65.1619 66.4913 65.1622Z" fill="#3A556A"/>
<path d="M62.155 67.6378C61.574 67.9769 61.3423 68.6271 61.6374 69.091L62.1158 69.8431C62.4108 70.3067 63.1211 70.4082 63.7023 70.0699C64.2835 69.7315 64.5156 69.0813 64.2206 68.6176L63.7421 67.8655C63.4479 67.4015 62.7379 67.2993 62.1563 67.6371C62.1558 67.6374 62.1553 67.6376 62.155 67.6378Z" fill="#3A556A"/>
<path d="M57.8185 70.1129C57.2374 70.452 57.0057 71.1022 57.3008 71.566L57.7793 72.3181C58.075 72.7813 58.7856 72.8818 59.3662 72.543C59.9458 72.2048 60.1773 71.556 59.8837 71.0929L59.4053 70.3408C59.1104 69.8768 58.4002 69.7748 57.8185 70.1129Z" fill="#3A556A"/>
<path d="M53.4818 72.5885C52.9007 72.9276 52.669 73.5778 52.9641 74.0417L53.4426 74.7937C53.7383 75.257 54.4489 75.3575 55.0295 75.0186C55.6091 74.6804 55.8407 74.0316 55.5471 73.5685L55.0686 72.8164C54.7738 72.3524 54.0635 72.2503 53.4818 72.5885Z" fill="#3A556A"/>
<path d="M49.1456 75.0641C48.5645 75.4032 48.3329 76.0534 48.628 76.5172L49.1064 77.2693C49.4021 77.7325 50.1127 77.833 50.6933 77.4942C51.2729 77.1559 51.5045 76.5071 51.2109 76.044L50.7324 75.292C50.4373 74.8281 49.7271 74.7261 49.1456 75.0641Z" fill="#3A556A"/>
<path d="M44.8079 77.5401C44.2267 77.8785 43.9946 78.5287 44.2896 78.9923L44.2902 78.9933L44.7686 79.7454C45.0643 80.2086 45.775 80.3091 46.3556 79.9703C46.9352 79.632 47.1667 78.9832 46.8731 78.5201L46.3947 77.768C46.0998 77.304 45.3896 77.202 44.8079 77.5401Z" fill="#3A556A"/>
<path d="M40.4727 80.0148C39.8914 80.3531 39.6594 81.0033 39.9544 81.4669L39.955 81.4679L40.4335 82.22C40.7292 82.6832 41.4398 82.7837 42.0204 82.4449C42.6 82.1066 42.8316 81.4578 42.538 80.9947L42.0595 80.2427C41.7644 79.7788 41.0541 79.6768 40.4727 80.0148Z" fill="#3A556A"/>
</svg>
